<?xml version="1.0" standalone="no"?>
<!DOCTYPE svg PUBLIC "-//W3C//DTD SVG 20010904//EN"
 "http://www.w3.org/TR/2001/REC-SVG-20010904/DTD/svg10.dtd">
<svg version="1.0" xmlns="http://www.w3.org/2000/svg"
 width="498.000000pt" height="485.000000pt" viewBox="0 0 498.000000 485.000000"
 preserveAspectRatio="xMidYMid meet">

<g transform="translate(0.000000,485.000000) scale(0.100000,-0.100000)"
fill="#000000" stroke="none">
<path d="M0 4180 l0 -670 263 0 c364 -1 887 -10 914 -15 28 -6 39 -45 27 -94
-9 -35 -10 -36 -59 -37 -71 -1 -71 -1 -84 -31 -30 -78 -39 -169 -35 -395 4
-208 6 -232 29 -298 22 -64 34 -81 95 -141 61 -59 71 -74 80 -117 9 -51 4
-113 -12 -144 -5 -11 -4 -43 2 -80 6 -35 16 -94 21 -133 6 -38 15 -76 21 -83
6 -7 12 -43 13 -80 3 -75 12 -125 30 -162 7 -14 15 -41 19 -60 3 -19 19 -53
35 -75 16 -22 32 -51 36 -65 4 -14 16 -33 26 -43 12 -11 19 -32 19 -55 0 -47
-46 -94 -143 -146 -63 -34 -72 -36 -135 -32 -37 3 -76 6 -86 8 -24 4 -58 -48
-40 -60 7 -4 14 -23 15 -42 6 -61 128 -274 204 -355 15 -17 54 -61 86 -100
104 -122 287 -255 476 -345 162 -77 163 -78 228 -95 33 -10 74 -23 90 -30 41
-17 115 -38 145 -41 14 -1 75 -7 136 -13 108 -11 169 -7 180 10 3 5 19 9 36 9
16 0 45 7 64 15 19 8 51 22 72 30 20 9 45 21 56 26 10 6 35 20 55 31 80 44
202 162 256 246 17 26 45 67 63 92 19 25 40 60 47 78 19 45 55 199 71 300 7
52 18 58 67 37 32 -13 37 -20 36 -48 0 -35 -21 -151 -38 -209 -6 -21 -15 -53
-19 -70 -21 -78 -91 -180 -200 -290 -48 -49 -91 -88 -95 -88 -5 0 -18 -11 -29
-25 -11 -14 -24 -25 -29 -25 -5 0 -28 -14 -51 -31 -23 -16 -61 -39 -83 -50
-22 -11 -56 -28 -75 -39 -19 -10 -43 -19 -53 -20 -10 0 -32 -8 -50 -17 -92
-48 -290 -53 -485 -11 -29 6 -55 15 -58 20 -3 4 -17 8 -31 8 -14 0 -39 6 -56
14 -18 7 -53 23 -78 34 -26 12 -60 24 -75 28 -16 4 -64 24 -107 45 -43 22 -84
39 -91 39 -8 0 -16 4 -18 8 -1 5 -34 29 -73 53 -38 23 -72 46 -75 50 -3 3 -18
13 -35 22 -16 9 -48 32 -69 51 -22 20 -42 36 -46 36 -9 0 -221 210 -255 253
-68 87 -95 123 -108 147 -8 14 -33 59 -57 100 -33 57 -45 90 -49 135 l-7 60
-18 -34 c-39 -72 4 -207 112 -353 60 -81 222 -267 262 -300 17 -14 50 -43 73
-65 70 -66 291 -211 409 -270 107 -53 263 -111 388 -145 101 -27 135 -32 281
-35 162 -5 168 -4 279 27 63 17 125 37 139 44 15 8 40 20 56 27 26 12 121 74
135 89 3 3 27 23 53 44 82 65 206 208 272 310 59 92 90 191 105 336 6 52 13
103 16 113 7 22 29 22 136 -5 49 -11 91 -18 95 -15 3 4 -3 17 -15 30 -26 28
-27 40 -6 58 15 12 14 15 -5 30 -12 10 -56 25 -99 35 -110 23 -115 28 -130
116 -8 47 -22 88 -38 111 -25 38 -53 52 -38 20 12 -29 28 -159 21 -177 -8 -19
-56 -21 -81 -3 -38 28 -59 246 -26 267 8 5 18 11 22 12 4 2 10 66 14 143 3 77
10 145 16 152 13 17 12 478 -1 523 -15 47 -14 166 1 193 9 17 48 228 50 272 0
6 -5 118 -11 249 -13 269 -18 290 -73 284 -30 -3 -32 -1 -44 47 -15 55 -19
161 -6 169 4 2 131 7 282 11 232 6 277 9 287 23 9 11 11 43 6 116 -8 136 -17
130 201 131 94 1 343 5 554 10 l382 8 0 524 0 523 -2490 0 -2490 0 0 -670z
m3880 281 c0 -21 3 -51 6 -67 3 -18 0 -37 -9 -49 -14 -19 -16 -17 -26 23 -11
40 -41 69 -60 58 -5 -3 -12 -26 -15 -50 -5 -33 -12 -45 -27 -49 -43 -11 -49 0
-49 89 l0 84 90 0 90 0 0 -39z m-1676 -9 c2 -4 26 -6 53 -4 105 6 120 5 168
-19 49 -23 50 -25 47 -64 -3 -25 -14 -52 -33 -74 -30 -36 -38 -78 -18 -98 6
-6 9 -18 7 -28 -2 -13 -17 -17 -63 -20 -50 -3 -64 0 -82 17 -13 12 -23 32 -23
45 0 48 -88 98 -104 58 -4 -11 -14 -13 -38 -8 -40 8 -58 24 -58 52 0 19 6 21
55 21 54 0 55 0 55 30 0 19 -5 30 -14 30 -29 0 -29 23 0 47 31 25 40 27 48 15z
m-510 -118 c11 -4 16 -19 16 -43 0 -30 -8 -44 -48 -83 -57 -56 -95 -69 -114
-39 -8 13 -23 21 -40 21 -15 0 -29 4 -33 10 -7 11 34 78 60 100 41 34 117 50
159 34z m1289 -86 c29 -32 57 -89 57 -118 0 -10 6 -21 13 -23 6 -3 2 -6 -11
-6 -13 -1 -20 3 -17 9 3 6 -4 14 -17 19 -29 11 -74 59 -83 89 -5 17 -12 22
-23 17 -11 -4 -9 1 6 15 l23 21 -23 20 -23 20 35 -17 c19 -9 47 -30 63 -46z"/>
<path d="M2205 4380 c-8 -14 9 -34 23 -29 7 3 6 11 -3 22 -9 13 -15 15 -20 7z"/>
<path d="M4778 3665 c-3 -3 -472 -16 -675 -19 -62 -1 -114 -4 -117 -6 -2 -3
-6 -27 -7 -55 l-4 -50 440 4 c242 2 467 4 500 5 l60 1 3 54 c2 36 -1 57 -10
63 -11 7 -182 10 -190 3z"/>
<path d="M3993 1173 c65 -207 62 -224 -35 -184 -73 30 -77 29 -75 -29 1 -27 6
-50 11 -50 5 0 24 -12 43 -26 20 -15 57 -29 96 -36 34 -6 69 -18 78 -27 9 -9
24 -43 33 -76 52 -181 120 -360 232 -612 l59 -133 38 0 c37 0 45 7 29 25 -5 6
-26 53 -47 105 -22 52 -45 105 -52 116 -8 12 -16 30 -18 40 -4 18 -54 146 -96
249 -12 28 -22 57 -24 65 -1 8 -8 29 -15 45 -6 17 -19 53 -27 80 -8 28 -21 57
-28 65 -17 19 -7 34 25 38 14 1 35 5 48 8 l22 4 -25 40 c-33 52 -32 91 1 61
18 -16 82 -20 101 -6 10 8 36 15 58 15 22 1 33 4 25 7 -8 3 -19 12 -23 19 -4
8 -12 14 -18 14 -5 0 -57 23 -116 50 -58 28 -107 49 -109 47 -7 -6 19 -71 33
-86 21 -21 12 -55 -16 -59 -55 -8 -70 5 -115 101 -23 51 -44 97 -45 102 -4 15
-33 45 -44 45 -5 0 -7 -8 -4 -17z"/>
<path d="M3783 1048 c-10 -14 -9 -85 1 -96 4 -3 12 -7 19 -8 7 -1 21 -6 32
-10 20 -7 20 -7 1 14 -11 12 -15 22 -11 22 5 0 1 6 -9 13 -14 10 -15 17 -7 40
6 16 11 30 11 33 0 9 -28 3 -37 -8z"/>
<path d="M4680 876 c0 -8 -9 -18 -20 -21 -11 -3 -20 -11 -20 -16 0 -5 -5 -9
-12 -9 -6 0 -19 -7 -29 -16 -9 -8 -39 -16 -66 -18 -36 -2 -60 -10 -85 -29 -19
-15 -40 -27 -46 -27 -7 0 -12 -11 -12 -25 0 -14 -4 -25 -9 -25 -12 0 -2 -48
20 -95 10 -22 21 -56 25 -75 3 -19 16 -57 29 -85 12 -27 26 -66 30 -85 4 -19
11 -39 15 -45 18 -26 71 -169 66 -181 -3 -8 -1 -14 4 -14 6 0 10 -6 10 -14 0
-7 6 -19 14 -26 8 -6 16 -24 18 -38 l3 -27 183 -3 182 -2 0 387 0 388 -67 25
c-36 14 -71 30 -77 36 -14 13 -121 54 -141 54 -8 0 -15 -6 -15 -14z"/>
<path d="M4341 744 c0 -11 3 -14 6 -6 3 7 2 16 -1 19 -3 4 -6 -2 -5 -13z"/>
<path d="M193 713 c-18 -7 -16 -23 5 -42 21 -18 102 -154 102 -171 0 -6 11
-32 24 -58 22 -45 72 -235 97 -375 l13 -67 39 0 40 0 -7 53 c-23 176 -72 330
-165 518 -62 123 -101 161 -148 142z"/>
<path d="M78 586 c-10 -13 -31 -30 -48 -37 l-30 -14 0 -267 0 -268 156 0 c145
0 156 1 149 18 -4 9 -15 58 -23 109 -8 51 -19 90 -24 87 -4 -3 -8 3 -8 13 -1
30 -48 182 -64 205 -9 12 -16 34 -16 48 0 27 -49 122 -65 126 -5 2 -18 -7 -27
-20z"/>
<path d="M3640 379 c-99 -20 -193 -88 -240 -173 -41 -75 -37 -198 8 -204 21
-3 21 -2 7 32 -19 45 -19 71 1 131 22 62 80 118 150 145 65 24 102 25 168 5
63 -19 120 -19 140 0 20 21 26 20 97 -17 73 -39 162 -123 185 -176 8 -20 20
-45 25 -54 5 -10 9 -29 9 -43 0 -14 5 -25 10 -25 15 0 12 49 -5 98 -25 71 -71
124 -194 225 -42 34 -91 52 -109 41 -12 -8 -29 -8 -62 2 -63 19 -138 24 -190
13z"/>
<path d="M3794 199 c-3 -6 -1 -16 5 -22 6 -6 11 -22 11 -35 0 -19 -4 -22 -22
-16 -52 16 -86 34 -91 48 -9 22 -36 9 -48 -21 -6 -16 -15 -23 -24 -20 -8 4
-16 -2 -20 -14 -6 -18 -8 -18 -28 -4 -12 8 -34 15 -50 15 -20 0 -30 6 -34 20
-6 22 -11 24 -31 11 -11 -7 -11 -21 0 -82 l13 -74 50 -3 c41 -3 52 0 67 20
l19 23 16 -23 c19 -26 32 -28 48 -5 11 14 16 15 28 4 25 -20 80 -10 92 17 12
27 21 28 35 1 7 -12 18 -18 26 -15 9 3 28 -1 44 -9 16 -8 54 -15 85 -15 53 0
55 1 43 20 -7 11 -21 20 -30 20 -20 0 -24 15 -8 25 6 3 23 -3 39 -14 34 -24
69 -27 96 -8 14 11 17 21 12 47 -8 40 -32 59 -72 59 -33 0 -69 -21 -57 -34 4
-4 0 -6 -8 -3 -8 2 -16 17 -18 31 -2 15 -5 27 -6 27 -18 0 -78 -34 -90 -51
l-15 -22 -20 24 c-11 13 -20 36 -21 50 0 28 -24 46 -36 28z m290 -93 c3 -13 9
-31 12 -40 4 -12 0 -16 -15 -16 -18 0 -21 6 -21 40 0 44 14 54 24 16z m-414
-11 c0 -8 -2 -15 -4 -15 -2 0 -6 7 -10 15 -3 8 -1 15 4 15 6 0 10 -7 10 -15z
m280 5 c0 -5 -4 -10 -10 -10 -5 0 -10 5 -10 10 0 6 5 10 10 10 6 0 10 -4 10
-10z m-204 -17 c15 -20 18 -43 6 -43 -8 0 -32 43 -32 55 0 11 14 4 26 -12z
m-202 -19 c3 -9 6 -25 6 -37 0 -20 0 -20 -15 -1 -16 21 -20 54 -6 54 5 0 12
-7 15 -16z m343 -20 c-9 -9 -28 6 -21 18 4 6 10 6 17 -1 6 -6 8 -13 4 -17z"/>
<path d="M3590 181 c0 -23 30 -37 41 -19 9 15 -8 38 -27 38 -8 0 -14 -9 -14
-19z"/>
</g>
</svg>
